<svg xmlns="http://www.w3.org/2000/svg" viewBox="0 0 108.63 181.25"><defs><style>.a{fill:#231f20;}</style></defs><title>hand</title><path class="a" d="M8,28.46a8,8,0,0,1,8,8V70.95a2.66,2.66,0,0,0,5.31,0V20.51a8,8,0,1,1,15.91,0V65.63a2.66,2.66,0,0,0,5.32,0V15.19a8,8,0,0,1,15.91,0V65.63a2.66,2.66,0,0,0,5.31,0V25.82a8,8,0,1,1,15.91,0V92.17L90.37,77.44c3.18-4.89,9.41-6.55,14-3.72s5.65,9.14,2.51,14c0,0-17.33,26.22-24.73,37.45a41.22,41.22,0,0,1-18,15.57v33.74a6.73,6.73,0,0,1-6.73,6.74H24.31a6.73,6.73,0,0,1-6.74-6.74V140.18C1.8,131.57,0,114.38,0,108.08V36.42A8,8,0,0,1,8,28.46Z"/></svg>