<svg xmlns="http://www.w3.org/2000/svg" viewBox="0 0 108.63 181.25"><defs><style>.a{fill:#231f20;}</style></defs><title>hand</title><path class="a" d="M18.85,99a8.56,8.56,0,0,0,8.55-8.55V60.08a8.55,8.55,0,1,0-17.1,0V90.46A8.56,8.56,0,0,0,18.85,99Z"/><path class="a" d="M39.91,92.84A8.8,8.8,0,0,0,46,90.4a14,14,0,0,1,2.74-12.28V52.63a8.83,8.83,0,0,0-17.66,0V84A8.84,8.84,0,0,0,39.91,92.84Z"/><path class="a" d="M59.76,73.89l10.05,2V44.16a9,9,0,1,0-18,0V75.4a11.19,11.19,0,0,1,5.89-1.71A10.77,10.77,0,0,1,59.76,73.89Z"/><path class="a" d="M88.51,79.47a9,9,0,0,0,2-5.66V41.87a9,9,0,0,0-18,0V73.82a9,9,0,0,0,.4,2.63Z"/><path class="a" d="M99.49,90.43a9.53,9.53,0,0,0-3.41-5.1c-1.49-1.18-4.47-3.17-6.45-3.17l-1.31-.39L59.93,76.26a8.32,8.32,0,0,0-1.62-.16l-0.41,0H57.72c-4.54,0-8.54,3.64-9.51,8.67a10.82,10.82,0,0,0,2.62,9.56,8.73,8.73,0,0,0,5,3c5.18,1,10.38,1.94,15.55,3l2,0.39c0.86,0.17,2.57.69,2.52,1.83a1.16,1.16,0,0,1-1.16,1.12H74.45c-1.56,0-9.63.28-15.17,5.87-4,4-5.87,10-5.51,17.65a1.16,1.16,0,0,1-.3.84,1.18,1.18,0,0,1-.81.38H52.61a1.17,1.17,0,0,1-1.17-1.11c-0.39-8.36,1.7-14.9,6.21-19.42A22.69,22.69,0,0,1,69,102L54.85,99.21a11.28,11.28,0,0,1-8-6.37,11.22,11.22,0,0,1-17.14-4v1.67A10.89,10.89,0,0,1,8.56,94v11.91c0,6.49,1.86,24.18,18.09,33v35.35a6.93,6.93,0,0,0,6.93,6.93H67.65a6.93,6.93,0,0,0,6.93-6.93V139.59l0.4-.2c5.38-1.22,15.67-6.22,20.75-26.4C97.58,105.68,101.56,98.13,99.49,90.43Z"/></svg>