<svg xmlns="http://www.w3.org/2000/svg" viewBox="0 0 108.63 181.25"><defs><style>.a{fill:#231f20;}</style></defs><title>hand</title><path class="a" d="M44.35,54.33a11.21,11.21,0,0,1,1.73,3.12l6.74,18.8a11,11,0,0,1,4.53-1,10.85,10.85,0,0,1,2,.19L81.2,79.69,93.26,18.5A9,9,0,1,0,75.62,15l-10,50.75a1.23,1.23,0,0,1-2.44-.15l-4-57.26A9,9,0,0,0,43.38,3.1,8.93,8.93,0,0,0,41.2,9.62Z"/><path class="a" d="M23,108.93a8.55,8.55,0,0,0,16.1-5.77l-2-5.7a11.22,11.22,0,0,1-1.54-2.88l-8.07-22.5a8.54,8.54,0,0,0-14.69,8.25Z"/><path class="a" d="M37.76,93.77A8.82,8.82,0,0,0,49.06,99.1,8.63,8.63,0,0,0,50,98.71a13,13,0,0,1-4.51-12.82,13.54,13.54,0,0,1,5.23-8.4L43.8,58.27a8.83,8.83,0,0,0-16.63,6Z"/><path class="a" d="M90.5,84.35l-3.89-1.14L58.92,77.84a8.28,8.28,0,0,0-1.57-.15c-4.54,0-8.54,3.65-9.52,8.67-1.1,5.67,2.09,11.07,7.1,12L73.67,102a1.21,1.21,0,0,1,.92,1.56H74.47a1.13,1.13,0,0,1-1.11,1H73.09c-1.52,0-9.39.27-14.8,5.72-3.92,3.94-5.72,9.74-5.37,17.21a1.14,1.14,0,0,1-1.08,1.19H51.79a1.13,1.13,0,0,1-1.13-1.08c-0.38-8.15,1.66-14.52,6-18.94a21.63,21.63,0,0,1,9.88-5.49l-12.11-2.41a10.79,10.79,0,0,1-2.12-.66,11.15,11.15,0,0,1-11.69.52l0.62,1.73a10.89,10.89,0,1,1-20.51,7.35L10.92,82.25v23.67c0,5.34,1.27,18.27,10.76,27.62l0.15,0.15q0.67,0.65,1.39,1.28l0.15,0.14q0.77,0.66,1.61,1.29l0.29,0.21q0.69,0.5,1.42,1l0.47,0.3c0.59,0.37,1.2.74,1.84,1.09v35.35a6.93,6.93,0,0,0,6.93,6.93H70a6.93,6.93,0,0,0,6.93-6.93V140.87l0.55-.22a24.19,24.19,0,0,0,4.4-2.29c11.2-7.39,11.77-22.12,15.16-36.27C99.55,91.71,94.36,86.62,90.5,84.35Z"/></svg>